<svg width="1280" height="832" viewBox="0 0 1280 832" fill="none" xmlns="http://www.w3.org/2000/svg">
<g clip-path="url(#clip0_1_2)">
<rect width="1280" height="832" fill="#F8FAF0"/>
<path d="M4.95686 538.117C-15.0838 524.436 -31.1677 505.719 -41.6762 483.847L-93.801 375.36C-124.68 311.092 -101.576 233.882 -40.4707 197.14L426.545 -83.6791C448.761 -97.0374 474.287 -103.876 500.205 -103.412L664.471 -100.474C716.682 -99.5404 763.905 -69.2462 786.52 -22.1773L894.344 202.235C935.754 288.422 879.192 389.602 784.083 399.472L592.269 419.377C558.572 422.874 527.334 438.632 504.495 463.654L351.713 631.039C305.329 681.857 228.619 690.796 171.792 652.004L4.95686 538.117Z" fill="#DCD19E" fill-opacity="0.1"/>
<path d="M724.668 1176.47C689.174 1169.91 657.656 1149.72 636.859 1120.22L618.772 1094.56C576.523 1034.63 588.459 952.133 645.962 906.632L1249.46 429.105C1261.92 419.247 1275.98 411.612 1291.04 406.535L1503.81 334.786C1561.75 315.249 1625.64 336.12 1660.87 386.094L1738.95 496.853C1789.55 568.64 1761.2 668.806 1680.48 703.418L1356.04 842.526C1337.22 850.595 1320.43 862.745 1306.89 878.099L1050.69 1168.48C1018.58 1204.88 969.726 1221.75 921.998 1212.93L724.668 1176.47Z" fill="#DCD19E" fill-opacity="0.1"/>
<path d="M997.778 173.557C990.232 173.557 983.117 172.21 976.433 169.515C969.857 166.712 964.144 162.777 959.293 157.71C954.549 152.644 950.992 146.661 948.62 139.761L969.156 130.544C972.175 137.12 976.325 142.295 981.608 146.068C986.998 149.841 992.927 151.727 999.395 151.727C1002.84 151.727 1005.81 151.188 1008.29 150.11C1010.77 149.032 1012.71 147.577 1014.11 145.744C1015.51 143.804 1016.21 141.54 1016.21 138.953C1016.21 136.15 1015.35 133.778 1013.62 131.838C1011.9 129.79 1009.21 128.173 1005.54 126.987L981.931 119.225C972.337 116.099 965.114 111.679 960.263 105.965C955.412 100.144 952.986 93.1906 952.986 85.1055C952.986 77.9905 954.711 71.738 958.161 66.3479C961.718 60.9577 966.623 56.7534 972.876 53.735C979.236 50.7165 986.513 49.2073 994.706 49.2073C1001.93 49.2073 1008.61 50.447 1014.76 52.9265C1020.9 55.4059 1026.18 58.9095 1030.6 63.4372C1035.13 67.9649 1038.53 73.4089 1040.79 79.7693L1020.42 88.9864C1018.15 83.3806 1014.76 79.0146 1010.23 75.8884C1005.7 72.6543 1000.53 71.0373 994.706 71.0373C991.364 71.0373 988.399 71.5763 985.812 72.6543C983.225 73.7323 981.23 75.2954 979.829 77.3437C978.427 79.2841 977.727 81.548 977.727 84.1352C977.727 86.9381 978.643 89.4176 980.476 91.5736C982.308 93.6219 985.057 95.2389 988.723 96.4247L1011.85 103.863C1021.55 106.989 1028.77 111.355 1033.51 116.961C1038.37 122.567 1040.79 129.412 1040.79 137.497C1040.79 144.505 1038.96 150.757 1035.29 156.255C1031.63 161.645 1026.56 165.903 1020.09 169.03C1013.73 172.048 1006.29 173.557 997.778 173.557Z" fill="#D4B777"/>
<path d="M881.416 171.617V119.063L841.313 51.1477H869.935L899.042 102.246H888.854L917.799 51.1477H946.421L906.48 118.902V171.617H881.416Z" fill="#D4B777"/>
<path d="M743.95 171.617L784.699 51.1477H818.01L858.76 171.617H831.432L823.347 147.038H779.202L771.116 171.617H743.95ZM786.155 125.208H816.393L797.959 68.2883H804.751L786.155 125.208Z" fill="#D4B777"/>
<path d="M621.51 171.617L589.978 51.1477H617.144L640.915 152.051H633.638L658.702 51.1477H684.575L709.639 152.051H702.362L726.132 51.1477H753.299L721.766 171.617H692.66L667.434 74.5947H675.843L650.617 171.617H621.51Z" fill="#D4B777"/>
<path d="M521.81 171.617V51.1477H546.874V149.787H597.811V171.617H521.81Z" fill="#D4B777"/>
<path d="M475.383 171.617V51.1477H500.447V171.617H475.383Z" fill="#D4B777"/>
<path d="M348.054 171.617L388.804 51.1477H422.115L462.864 171.617H435.536L427.451 147.038H383.306L375.221 171.617H348.054ZM390.259 125.208H420.498L402.063 68.2883H408.855L390.259 125.208Z" fill="#D4B777"/>
<path d="M239.391 171.617V51.1477H285.476C293.777 51.1477 301.108 52.603 307.468 55.5137C313.936 58.4244 319.003 62.7365 322.668 68.45C326.333 74.1635 328.166 81.2246 328.166 89.6332C328.166 97.8261 326.28 104.833 322.506 110.655C318.733 116.368 313.667 120.68 307.306 123.591L334.796 171.617H306.659L276.906 118.416L293.076 127.957H264.455V171.617H239.391ZM264.455 106.127H285.638C289.196 106.127 292.268 105.426 294.855 104.025C297.442 102.623 299.437 100.683 300.838 98.2035C302.347 95.724 303.102 92.8672 303.102 89.6332C303.102 86.2913 302.347 83.3806 300.838 80.9012C299.437 78.4217 297.442 76.4813 294.855 75.0798C292.268 73.6784 289.196 72.9777 285.638 72.9777H264.455V106.127Z" fill="#D4B777"/>
<path fill-rule="evenodd" clip-rule="evenodd" d="M973.364 177.126C973.314 177.106 973.265 177.086 973.215 177.065C965.638 173.835 958.998 169.27 953.364 163.386L953.324 163.343L953.301 163.319C947.727 157.365 943.587 150.366 940.859 142.429C939.479 138.415 941.387 134.012 945.26 132.274L965.796 123.056C966.593 122.699 967.417 122.478 968.242 122.386C962.615 119.425 957.81 115.758 954.006 111.277L953.958 111.219C947.792 103.82 944.779 94.9719 944.779 85.1055C944.779 76.6037 946.86 68.7794 951.248 61.9237C951.259 61.9058 951.271 61.888 951.282 61.8702L951.311 61.8269C955.745 55.109 961.826 49.9557 969.308 46.3439L969.357 46.3203C976.983 42.7011 985.494 41 994.706 41C1002.89 41 1010.62 42.408 1017.83 45.3154C1024.96 48.1933 1031.2 52.3068 1036.44 57.6688C1041.86 63.0975 1045.88 69.589 1048.52 77.0171C1049.95 81.0393 1048.06 85.4873 1044.17 87.247L1023.8 96.4641C1021.76 97.3853 1019.44 97.4361 1017.36 96.6049C1015.29 95.7736 1013.64 94.1321 1012.81 92.0597C1011.08 87.7896 1008.64 84.7667 1005.57 82.6421C1005.53 82.6173 1005.49 82.5922 1005.46 82.5669C1002.39 80.3749 998.901 79.2445 994.706 79.2445C992.243 79.2445 990.383 79.6409 988.969 80.2302C987.651 80.7794 986.996 81.4038 986.602 81.9782C986.563 82.0356 986.523 82.0926 986.482 82.149C986.174 82.5759 985.934 83.1259 985.934 84.1352C985.934 84.9355 986.127 85.5201 986.658 86.1728C987.244 86.7916 988.544 87.74 991.244 88.6144C991.246 88.6149 991.247 88.6154 991.249 88.616L1014.36 96.0501L1014.36 96.0513C1024.96 99.4674 1033.71 104.497 1039.75 111.626C1045.99 118.856 1049 127.649 1049 137.497C1049 146.022 1046.74 153.878 1042.12 160.808L1042.08 160.87C1037.52 167.57 1031.29 172.732 1023.66 176.419L1023.61 176.444C1015.95 180.083 1007.26 181.765 997.778 181.765C989.23 181.765 981.069 180.233 973.364 177.126ZM1033.51 116.961C1028.77 111.355 1021.55 106.989 1011.85 103.863L988.723 96.4247C985.057 95.2389 982.308 93.6219 980.476 91.5736C978.643 89.4176 977.727 86.9381 977.727 84.1352C977.727 81.548 978.428 79.2841 979.829 77.3437C981.23 75.2954 983.225 73.7323 985.812 72.6543C988.399 71.5763 991.364 71.0373 994.706 71.0373C1000.53 71.0373 1005.7 72.6543 1010.23 75.8884C1014.03 78.5121 1017.03 82.0091 1019.24 86.3794C1019.66 87.2163 1020.05 88.0853 1020.42 88.9863L1040.79 79.7692C1039.89 77.2462 1038.82 74.8674 1037.56 72.6328C1037.5 72.5234 1037.44 72.4143 1037.38 72.3056C1035.51 69.0371 1033.25 66.0809 1030.6 63.4372C1026.18 58.9095 1020.9 55.4059 1014.76 52.9265C1008.61 50.447 1001.93 49.2073 994.706 49.2073C986.513 49.2073 979.236 50.7165 972.876 53.735C966.623 56.7534 961.718 60.9577 958.161 66.3478C954.711 71.738 952.986 77.9905 952.986 85.1055C952.986 93.1906 955.412 100.144 960.263 105.965C965.114 111.679 972.337 116.099 981.931 119.225L1005.54 126.987C1009.21 128.173 1011.9 129.79 1013.62 131.838C1015.35 133.778 1016.21 136.15 1016.21 138.953C1016.21 141.54 1015.51 143.804 1014.11 145.744C1012.71 147.577 1010.77 149.032 1008.29 150.11C1005.81 151.188 1002.84 151.727 999.395 151.727C992.927 151.727 986.998 149.841 981.608 146.068C976.325 142.295 972.175 137.12 969.157 130.544L948.62 139.761C950.992 146.661 954.549 152.644 959.293 157.71C964.144 162.777 969.857 166.712 976.433 169.515C983.117 172.21 990.232 173.557 997.778 173.557C1006.29 173.557 1013.73 172.048 1020.09 169.03C1026.56 165.903 1031.63 161.645 1035.29 156.255C1038.96 150.757 1040.79 144.505 1040.79 137.497C1040.79 129.412 1038.37 122.567 1033.51 116.961ZM986.346 139.366C990.373 142.176 994.654 143.52 999.395 143.52C1002.02 143.52 1003.81 143.107 1005.02 142.584C1006.36 142 1007.09 141.378 1007.52 140.85C1007.8 140.435 1008 139.894 1008 138.953C1008 137.986 1007.77 137.604 1007.49 137.29C1007.44 137.236 1007.39 137.18 1007.35 137.124C1006.96 136.659 1005.82 135.705 1003.01 134.795L1002.98 134.783L979.388 127.028C979.384 127.027 979.38 127.026 979.376 127.024C978.174 126.633 976.996 126.219 975.844 125.784C976.137 126.197 976.396 126.643 976.615 127.12C979.1 132.534 982.372 136.519 986.346 139.366Z" fill="#AD9255"/>
<path fill-rule="evenodd" clip-rule="evenodd" d="M881.416 179.824C876.883 179.824 873.209 176.15 873.209 171.617V121.305L834.246 55.3207C832.748 52.7835 832.725 49.6378 834.186 47.0789C835.646 44.5199 838.367 42.9404 841.313 42.9404H869.935C872.884 42.9404 875.607 44.5228 877.066 47.0855L893.914 76.6621L910.658 47.1026C912.115 44.5303 914.843 42.9404 917.799 42.9404H946.421C949.366 42.9404 952.086 44.5188 953.547 47.0763C955.008 49.6338 954.987 52.7782 953.491 55.3156L914.687 121.14V171.617C914.687 176.15 911.013 179.824 906.48 179.824H881.416ZM906.48 118.902L946.421 51.1477H917.799L893.934 93.2789L869.935 51.1477H841.313L881.416 119.063V171.617H906.48V118.902Z" fill="#AD9255"/>
<path fill-rule="evenodd" clip-rule="evenodd" d="M737.281 176.401C735.74 174.252 735.328 171.492 736.176 168.987L776.925 48.5179C778.053 45.1842 781.18 42.9404 784.699 42.9404H818.01C821.53 42.9404 824.657 45.1842 825.785 48.5179L866.534 168.987C867.382 171.492 866.97 174.252 865.428 176.401C863.887 178.55 861.404 179.824 858.76 179.824H831.432C827.887 179.824 824.743 177.549 823.635 174.181L817.406 155.245H785.142L778.913 174.181C777.805 177.549 774.661 179.824 771.116 179.824H743.95C741.306 179.824 738.823 178.55 737.281 176.401ZM779.202 147.038H823.347L831.432 171.617H858.76L818.01 51.1477H784.699L743.95 171.617H771.116L779.202 147.038ZM786.155 125.208H816.393L801.34 78.7277L786.155 125.208ZM801.306 105.26L797.47 117.001H805.108L801.306 105.26Z" fill="#AD9255"/>
<path fill-rule="evenodd" clip-rule="evenodd" d="M621.51 179.824C617.778 179.824 614.515 177.306 613.57 173.695L582.038 53.2259C581.394 50.7656 581.927 48.1457 583.481 46.1326C585.035 44.1194 587.435 42.9404 589.978 42.9404H617.144C620.952 42.9404 624.26 45.5595 625.133 49.2658L637.584 102.12L650.737 49.1692C651.646 45.5097 654.931 42.9404 658.702 42.9404H684.575C688.345 42.9404 691.631 45.5097 692.54 49.1692L705.693 102.12L718.144 49.2658C719.017 45.5595 722.325 42.9404 726.132 42.9404H753.299C755.842 42.9404 758.241 44.1194 759.795 46.1326C761.349 48.1457 761.882 50.7656 761.238 53.2259L729.706 173.695C728.761 177.306 725.499 179.824 721.766 179.824H692.66C688.922 179.824 685.657 177.299 684.717 173.682L671.638 123.381L658.56 173.682C657.62 177.299 654.354 179.824 650.617 179.824H621.51ZM671.638 90.7651L692.66 171.617H721.766L753.299 51.1477H726.132L705.904 137.016L684.575 51.1477H658.702L637.373 137.016L617.144 51.1477H589.978L621.51 171.617H650.617L671.638 90.7651Z" fill="#AD9255"/>
<path fill-rule="evenodd" clip-rule="evenodd" d="M521.81 179.824C517.277 179.824 513.603 176.15 513.603 171.617V51.1477C513.603 46.615 517.277 42.9404 521.81 42.9404H546.874C551.407 42.9404 555.081 46.615 555.081 51.1477V141.58H597.811C602.343 141.58 606.018 145.254 606.018 149.787V171.617C606.018 176.15 602.343 179.824 597.811 179.824H521.81ZM546.874 149.787V51.1477H521.81V171.617H597.811V149.787H546.874Z" fill="#AD9255"/>
<path fill-rule="evenodd" clip-rule="evenodd" d="M475.383 179.824C470.851 179.824 467.176 176.15 467.176 171.617V51.1477C467.176 46.615 470.851 42.9404 475.383 42.9404H500.447C504.98 42.9404 508.655 46.615 508.655 51.1477V171.617C508.655 176.15 504.98 179.824 500.447 179.824H475.383ZM475.383 171.617H500.447V51.1477H475.383V171.617Z" fill="#AD9255"/>
<path fill-rule="evenodd" clip-rule="evenodd" d="M341.386 176.401C339.844 174.252 339.432 171.492 340.28 168.987L381.029 48.5179C382.157 45.1842 385.284 42.9404 388.804 42.9404H422.115C425.634 42.9404 428.761 45.1842 429.889 48.5179L470.638 168.987C471.486 171.492 471.074 174.252 469.533 176.401C467.991 178.55 465.508 179.824 462.864 179.824H435.536C431.991 179.824 428.847 177.549 427.74 174.181L421.511 155.245H389.246L383.017 174.181C381.909 177.549 378.765 179.824 375.221 179.824H348.054C345.41 179.824 342.927 178.55 341.386 176.401ZM383.306 147.038H427.451L435.536 171.617H462.864L422.115 51.1477H388.804L348.054 171.617H375.221L383.306 147.038ZM390.259 125.208H420.498L405.444 78.7277L390.259 125.208ZM405.41 105.26L401.574 117.001H409.213L405.41 105.26Z" fill="#AD9255"/>
<path fill-rule="evenodd" clip-rule="evenodd" d="M239.391 179.824C234.858 179.824 231.184 176.15 231.184 171.617V51.1477C231.184 46.615 234.858 42.9404 239.391 42.9404H285.476C294.729 42.9404 303.252 44.5633 310.86 48.04C318.699 51.5728 325.017 56.9109 329.576 64.0184C334.272 71.3383 336.373 80.0288 336.373 89.6332C336.373 99.1187 334.174 107.743 329.394 115.119L329.355 115.177C326.38 119.682 322.735 123.484 318.465 126.565L341.919 167.54C343.373 170.08 343.364 173.202 341.896 175.734C340.428 178.266 337.723 179.824 334.796 179.824H306.659C303.687 179.824 300.947 178.217 299.496 175.623L277.428 136.164H272.662V171.617C272.662 176.15 268.988 179.824 264.455 179.824H239.391ZM264.455 127.957H282.242L306.659 171.617H334.796L307.306 123.591C309.474 122.599 311.491 121.444 313.358 120.127C316.97 117.578 320.019 114.421 322.506 110.655C326.28 104.833 328.166 97.8261 328.166 89.6332C328.166 81.2246 326.333 74.1635 322.668 68.45C319.003 62.7365 313.936 58.4244 307.468 55.5137C301.108 52.603 293.777 51.1477 285.476 51.1477H239.391V171.617H264.455V127.957ZM300.838 80.9012C302.347 83.3806 303.102 86.2913 303.102 89.6332C303.102 92.8672 302.347 95.724 300.838 98.2034C299.437 100.683 297.442 102.623 294.855 104.025C292.268 105.426 289.196 106.127 285.638 106.127H264.455V72.9777H285.638C289.196 72.9777 292.268 73.6784 294.855 75.0798C297.442 76.4813 299.437 78.4217 300.838 80.9012ZM272.662 81.185V97.9196H285.638C288.114 97.9196 289.786 97.4366 290.946 96.8082C292.225 96.1155 293.077 95.2561 293.693 94.165C293.737 94.088 293.782 94.0117 293.828 93.9361C294.467 92.8855 294.895 91.5387 294.895 89.6332C294.895 87.5646 294.442 86.1775 293.828 85.1685C293.782 85.0929 293.737 85.0166 293.693 84.9396C293.077 83.8485 292.225 82.9891 290.946 82.2964C289.786 81.668 288.114 81.185 285.638 81.185H272.662Z" fill="#AD9255"/>
<line x1="236.926" y1="62.7277" x2="285.96" y2="62.7277" stroke="#AD9255" stroke-width="2.73576"/>
<line x1="357.299" y1="138.645" x2="391.496" y2="138.645" stroke="#AD9255" stroke-width="4.10364"/>
<line x1="398.335" y1="65.4635" x2="432.532" y2="65.4635" stroke="#AD9255" stroke-width="5.47151"/>
<line x1="492.719" y1="69.5671" x2="492.719" y2="49.049" stroke="#AD9255" stroke-width="5.47151"/>
<line x1="481.776" y1="177.63" x2="481.776" y2="157.111" stroke="#AD9255" stroke-width="5.47151"/>
<line x1="616.568" y1="78.2497" x2="609.728" y2="49.5242" stroke="#AD9255" stroke-width="4.10364"/>
<line x1="577.527" y1="161.899" x2="599.413" y2="161.899" stroke="#AD9255" stroke-width="4.10364"/>
<line x1="518.709" y1="147.536" x2="562.481" y2="147.536" stroke="#AD9255" stroke-width="5.47151"/>
<line x1="831.953" y1="139.329" x2="851.103" y2="139.329" stroke="#AD9255" stroke-width="2.73576"/>
<line x1="997.466" y1="161.215" x2="1038.5" y2="161.215" stroke="#AD9255" stroke-width="5.47151"/>
<line x1="959.165" y1="62.7277" x2="990.627" y2="62.7277" stroke="#AD9255" stroke-width="5.47151"/>
<line x1="637.64" y1="126.388" x2="649.951" y2="178.367" stroke="#AD9255" stroke-width="5.47151"/>
<line x1="706.034" y1="126.388" x2="718.345" y2="178.367" stroke="#AD9255" stroke-width="5.47151"/>
<line x1="706.034" y1="126.388" x2="718.345" y2="178.367" stroke="#AD9255" stroke-width="5.47151"/>
<line x1="758.087" y1="122.914" x2="848.367" y2="122.914" stroke="#AD9255" stroke-width="5.47151"/>
<line x1="747.144" y1="150.272" x2="853.839" y2="150.272" stroke="#AD9255" stroke-width="5.47151"/>
<line x1="891.851" y1="83.3904" x2="911.001" y2="121.691" stroke="#AD9255" stroke-width="5.47151"/>
<line x1="850.678" y1="47.5852" x2="876.668" y2="88.6215" stroke="#AD9255" stroke-width="5.47151"/>
<line x1="349.092" y1="150.272" x2="455.786" y2="150.272" stroke="#AD9255" stroke-width="5.47151"/>
<line x1="358.667" y1="124.282" x2="454.418" y2="124.282" stroke="#AD9255" stroke-width="5.47151"/>
<line x1="236.926" y1="127.018" x2="314.895" y2="127.018" stroke="#AD9255" stroke-width="5.47151"/>
<line x1="725.292" y1="78.8391" x2="732.132" y2="48.7458" stroke="#AD9255" stroke-width="2.73576"/>
<rect x="233.149" y="219.845" width="813.645" height="100.887" rx="17.6879" fill="white" stroke="#D4B777" stroke-width="3.93065"/>
<path d="M267.796 283.635L261.664 260.208H266.947L271.57 279.83H270.155L275.029 260.208H280.06L284.934 279.83H283.519L288.141 260.208H293.424L287.292 283.635H281.632L276.727 264.768H278.362L273.456 283.635H267.796ZM295.853 283.635V260.208H300.727V270.333H309.846V260.208H314.72V283.635H309.846V274.579H300.727V283.635H295.853ZM330.613 284.012C328.852 284.012 327.217 283.708 325.707 283.1C324.198 282.492 322.877 281.643 321.745 280.553C320.634 279.442 319.764 278.153 319.135 276.685C318.506 275.218 318.192 273.625 318.192 271.906C318.192 270.187 318.496 268.594 319.104 267.126C319.733 265.659 320.603 264.38 321.714 263.29C322.846 262.2 324.167 261.351 325.676 260.743C327.185 260.135 328.831 259.831 330.613 259.831C332.395 259.831 334.04 260.135 335.55 260.743C337.059 261.351 338.369 262.2 339.48 263.29C340.612 264.38 341.482 265.659 342.09 267.126C342.719 268.594 343.034 270.187 343.034 271.906C343.034 273.625 342.719 275.218 342.09 276.685C341.461 278.153 340.581 279.442 339.449 280.553C338.338 281.643 337.028 282.492 335.518 283.1C334.009 283.708 332.374 284.012 330.613 284.012ZM330.613 279.61C331.682 279.61 332.667 279.421 333.569 279.044C334.491 278.666 335.298 278.142 335.99 277.472C336.682 276.78 337.216 275.962 337.594 275.019C337.971 274.075 338.16 273.038 338.16 271.906C338.16 270.774 337.971 269.747 337.594 268.824C337.216 267.881 336.682 267.063 335.99 266.371C335.298 265.68 334.491 265.156 333.569 264.799C332.667 264.422 331.682 264.233 330.613 264.233C329.544 264.233 328.548 264.422 327.625 264.799C326.724 265.156 325.927 265.68 325.236 266.371C324.544 267.063 324.009 267.881 323.632 268.824C323.255 269.747 323.066 270.774 323.066 271.906C323.066 273.038 323.255 274.075 323.632 275.019C324.009 275.962 324.544 276.78 325.236 277.472C325.927 278.142 326.724 278.666 327.625 279.044C328.548 279.421 329.544 279.61 330.613 279.61ZM350.411 283.635L358.335 260.208H364.813L372.737 283.635H367.423L365.851 278.855H357.266L355.694 283.635H350.411ZM358.618 274.61H364.499L360.914 263.541H362.235L358.618 274.61ZM375.172 283.635V260.208H384.134C385.748 260.208 387.173 260.491 388.41 261.057C389.668 261.623 390.653 262.462 391.366 263.573C392.079 264.684 392.435 266.057 392.435 267.692C392.435 269.285 392.068 270.648 391.335 271.78C390.601 272.891 389.616 273.73 388.379 274.296L393.725 283.635H388.253L382.467 273.289L385.612 275.145H380.046V283.635H375.172ZM380.046 270.9H384.165C384.857 270.9 385.454 270.763 385.958 270.491C386.461 270.218 386.849 269.841 387.121 269.359C387.415 268.877 387.561 268.321 387.561 267.692C387.561 267.042 387.415 266.476 387.121 265.994C386.849 265.512 386.461 265.135 385.958 264.862C385.454 264.589 384.857 264.453 384.165 264.453H380.046V270.9ZM396.146 283.635V260.208H411.9V264.453H401.02V269.767H411.271V274.013H401.02V279.39H411.9V283.635H396.146ZM426.382 283.635V273.415L418.584 260.208H424.149L429.809 270.145H427.828L433.457 260.208H439.023L431.256 273.384V283.635H426.382ZM452.217 284.012C450.456 284.012 448.821 283.708 447.312 283.1C445.803 282.492 444.482 281.643 443.35 280.553C442.239 279.442 441.369 278.153 440.74 276.685C440.111 275.218 439.797 273.625 439.797 271.906C439.797 270.187 440.1 268.594 440.708 267.126C441.337 265.659 442.207 264.38 443.318 263.29C444.45 262.2 445.771 261.351 447.28 260.743C448.79 260.135 450.435 259.831 452.217 259.831C453.999 259.831 455.645 260.135 457.154 260.743C458.664 261.351 459.974 262.2 461.085 263.29C462.217 264.38 463.087 265.659 463.695 267.126C464.324 268.594 464.638 270.187 464.638 271.906C464.638 273.625 464.324 275.218 463.695 276.685C463.066 278.153 462.186 279.442 461.054 280.553C459.942 281.643 458.632 282.492 457.123 283.1C455.613 283.708 453.978 284.012 452.217 284.012ZM452.217 279.61C453.287 279.61 454.272 279.421 455.173 279.044C456.096 278.666 456.903 278.142 457.595 277.472C458.286 276.78 458.821 275.962 459.198 275.019C459.576 274.075 459.764 273.038 459.764 271.906C459.764 270.774 459.576 269.747 459.198 268.824C458.821 267.881 458.286 267.063 457.595 266.371C456.903 265.68 456.096 265.156 455.173 264.799C454.272 264.422 453.287 264.233 452.217 264.233C451.148 264.233 450.152 264.422 449.23 264.799C448.329 265.156 447.532 265.68 446.84 266.371C446.148 267.063 445.614 267.881 445.237 268.824C444.859 269.747 444.671 270.774 444.671 271.906C444.671 273.038 444.859 274.075 445.237 275.019C445.614 275.962 446.148 276.78 446.84 277.472C447.532 278.142 448.329 278.666 449.23 279.044C450.152 279.421 451.148 279.61 452.217 279.61ZM477.403 284.012C475.558 284.012 473.912 283.624 472.466 282.849C471.019 282.073 469.877 281.014 469.038 279.673C468.221 278.31 467.812 276.769 467.812 275.05V260.208H472.686V274.736C472.686 275.658 472.885 276.497 473.283 277.251C473.703 277.985 474.269 278.562 474.982 278.981C475.694 279.4 476.501 279.61 477.403 279.61C478.325 279.61 479.132 279.4 479.824 278.981C480.537 278.562 481.092 277.985 481.491 277.251C481.91 276.497 482.12 275.658 482.12 274.736V260.208H486.994V275.05C486.994 276.769 486.574 278.31 485.736 279.673C484.918 281.014 483.786 282.073 482.34 282.849C480.893 283.624 479.248 284.012 477.403 284.012ZM495.85 276.402V275.679C495.85 274.757 495.975 273.95 496.227 273.258C496.499 272.545 496.845 271.916 497.265 271.371C497.684 270.826 498.114 270.333 498.554 269.893C499.162 269.285 499.707 268.74 500.189 268.258C500.671 267.755 500.912 267.178 500.912 266.529C500.912 266.088 500.807 265.701 500.598 265.365C500.388 265.009 500.074 264.736 499.654 264.548C499.256 264.338 498.753 264.233 498.145 264.233C497.369 264.233 496.688 264.474 496.101 264.956C495.535 265.418 495.189 266.046 495.063 266.843L490.693 265.742C490.881 264.569 491.311 263.541 491.982 262.661C492.674 261.78 493.554 261.089 494.623 260.585C495.713 260.082 496.929 259.831 498.271 259.831C499.906 259.831 501.279 260.156 502.39 260.806C503.522 261.434 504.371 262.252 504.937 263.258C505.503 264.244 505.786 265.292 505.786 266.403C505.786 267.199 505.629 267.912 505.315 268.541C505.021 269.149 504.644 269.715 504.183 270.239C503.721 270.742 503.239 271.235 502.736 271.717C502.086 272.325 501.51 272.964 501.007 273.635C500.504 274.306 500.252 275.092 500.252 275.994V276.402H495.85ZM495.724 283.635V278.918H500.441V283.635H495.724Z" fill="#AD9255" fill-opacity="0.5"/>
<rect x="797.853" y="361.348" width="248.941" height="100.887" rx="17.6879" fill="#EAEFD3" stroke="#B4BFA3" stroke-width="3.93065"/>
<path d="M874.055 425.138V401.712H883.017C884.631 401.712 886.056 401.995 887.293 402.561C888.551 403.127 889.536 403.965 890.249 405.076C890.962 406.187 891.318 407.56 891.318 409.196C891.318 410.789 890.951 412.151 890.217 413.284C889.484 414.395 888.498 415.233 887.262 415.799L892.607 425.138H887.136L881.35 414.793L884.494 416.648H878.929V425.138H874.055ZM878.929 412.403H883.048C883.74 412.403 884.337 412.267 884.84 411.994C885.343 411.722 885.731 411.344 886.004 410.862C886.297 410.38 886.444 409.825 886.444 409.196C886.444 408.546 886.297 407.98 886.004 407.498C885.731 407.015 885.343 406.638 884.84 406.366C884.337 406.093 883.74 405.957 883.048 405.957H878.929V412.403ZM904.336 425.516C902.491 425.516 900.846 425.128 899.399 424.352C897.953 423.577 896.81 422.518 895.972 421.176C895.154 419.814 894.745 418.273 894.745 416.554V401.712H899.619V416.239C899.619 417.162 899.819 418 900.217 418.755C900.636 419.489 901.202 420.065 901.915 420.484C902.628 420.904 903.435 421.113 904.336 421.113C905.259 421.113 906.066 420.904 906.757 420.484C907.47 420.065 908.026 419.489 908.424 418.755C908.843 418 909.053 417.162 909.053 416.239V401.712H913.927V416.554C913.927 418.273 913.508 419.814 912.669 421.176C911.852 422.518 910.72 423.577 909.273 424.352C907.827 425.128 906.181 425.516 904.336 425.516ZM917.783 425.138V401.712H922.657V420.893H932.562V425.138H917.783ZM934.98 425.138V401.712H950.734V405.957H939.854V411.271H950.105V415.516H939.854V420.893H950.734V425.138H934.98ZM962.018 425.516C960.551 425.516 959.167 425.254 957.868 424.73C956.589 424.185 955.478 423.419 954.535 422.434C953.612 421.449 952.92 420.285 952.459 418.944L956.453 417.151C957.04 418.43 957.847 419.436 958.874 420.17C959.922 420.904 961.075 421.271 962.333 421.271C963.004 421.271 963.58 421.166 964.062 420.956C964.545 420.747 964.922 420.464 965.194 420.107C965.467 419.73 965.603 419.29 965.603 418.786C965.603 418.241 965.436 417.78 965.1 417.403C964.765 417.005 964.241 416.69 963.528 416.459L958.937 414.95C957.071 414.342 955.667 413.483 954.723 412.372C953.78 411.24 953.308 409.887 953.308 408.315C953.308 406.932 953.644 405.716 954.314 404.668C955.006 403.619 955.96 402.802 957.176 402.215C958.413 401.628 959.828 401.334 961.421 401.334C962.826 401.334 964.125 401.575 965.32 402.058C966.515 402.54 967.542 403.221 968.402 404.102C969.282 404.982 969.943 406.041 970.383 407.277L966.421 409.07C965.981 407.98 965.32 407.131 964.44 406.523C963.559 405.894 962.553 405.579 961.421 405.579C960.771 405.579 960.195 405.684 959.692 405.894C959.188 406.104 958.801 406.407 958.528 406.806C958.256 407.183 958.119 407.623 958.119 408.126C958.119 408.672 958.297 409.154 958.654 409.573C959.01 409.971 959.545 410.286 960.258 410.516L964.754 411.963C966.641 412.571 968.045 413.42 968.968 414.51C969.911 415.6 970.383 416.931 970.383 418.503C970.383 419.866 970.027 421.082 969.314 422.151C968.601 423.199 967.616 424.027 966.358 424.635C965.121 425.222 963.675 425.516 962.018 425.516Z" fill="#505168"/>
<g opacity="0.5">
<rect x="796.543" y="476.647" width="248.941" height="100.887" rx="17.6879" fill="#505168" stroke="#28233A" stroke-width="3.93065"/>
<path d="M832.824 540.815C831.356 540.815 829.973 540.553 828.673 540.029C827.394 539.484 826.283 538.719 825.34 537.733C824.417 536.748 823.726 535.585 823.264 534.243L827.258 532.45C827.845 533.729 828.652 534.735 829.679 535.469C830.727 536.203 831.88 536.57 833.138 536.57C833.809 536.57 834.385 536.465 834.868 536.255C835.35 536.046 835.727 535.763 836 535.406C836.272 535.029 836.408 534.589 836.408 534.086C836.408 533.541 836.241 533.079 835.905 532.702C835.57 532.304 835.046 531.989 834.333 531.759L829.742 530.249C827.876 529.641 826.472 528.782 825.528 527.671C824.585 526.539 824.113 525.187 824.113 523.614C824.113 522.231 824.449 521.015 825.12 519.967C825.811 518.919 826.765 518.101 827.981 517.514C829.218 516.927 830.633 516.634 832.226 516.634C833.631 516.634 834.931 516.875 836.125 517.357C837.32 517.839 838.348 518.52 839.207 519.401C840.088 520.281 840.748 521.34 841.188 522.577L837.226 524.369C836.786 523.279 836.125 522.43 835.245 521.822C834.364 521.193 833.358 520.879 832.226 520.879C831.576 520.879 831 520.983 830.497 521.193C829.994 521.403 829.606 521.707 829.333 522.105C829.061 522.482 828.924 522.923 828.924 523.426C828.924 523.971 829.103 524.453 829.459 524.872C829.815 525.27 830.35 525.585 831.063 525.816L835.559 527.262C837.446 527.87 838.851 528.719 839.773 529.809C840.716 530.899 841.188 532.23 841.188 533.803C841.188 535.165 840.832 536.381 840.119 537.45C839.406 538.498 838.421 539.326 837.163 539.934C835.926 540.521 834.48 540.815 832.824 540.815ZM848.875 540.438V521.256H842.932V517.011H859.598V521.256H853.749V540.438H848.875ZM858.716 540.438L866.64 517.011H873.118L881.042 540.438H875.728L874.156 535.658H865.571L863.999 540.438H858.716ZM866.923 531.413H872.804L869.219 520.344H870.54L866.923 531.413ZM883.477 540.438V517.011H892.439C894.053 517.011 895.478 517.294 896.715 517.86C897.973 518.426 898.958 519.264 899.671 520.376C900.384 521.487 900.74 522.86 900.74 524.495C900.74 526.088 900.373 527.451 899.64 528.583C898.906 529.694 897.921 530.532 896.684 531.098L902.029 540.438H896.558L890.772 530.092L893.917 531.947H888.351V540.438H883.477ZM888.351 527.702H892.47C893.162 527.702 893.759 527.566 894.262 527.293C894.766 527.021 895.153 526.644 895.426 526.161C895.719 525.679 895.866 525.124 895.866 524.495C895.866 523.845 895.719 523.279 895.426 522.797C895.153 522.315 894.766 521.937 894.262 521.665C893.759 521.392 893.162 521.256 892.47 521.256H888.351V527.702ZM908.05 540.438V521.256H902.107V517.011H918.773V521.256H912.924V540.438H908.05ZM938.094 540.815C936.417 540.815 934.855 540.511 933.409 539.903C931.962 539.295 930.694 538.446 929.604 537.356C928.514 536.266 927.665 534.987 927.057 533.52C926.449 532.052 926.145 530.448 926.145 528.708C926.145 526.969 926.439 525.365 927.025 523.897C927.612 522.409 928.441 521.13 929.51 520.061C930.579 518.971 931.826 518.132 933.252 517.545C934.698 516.937 936.27 516.634 937.968 516.634C939.666 516.634 941.186 516.917 942.528 517.483C943.891 518.049 945.044 518.803 945.987 519.747C946.93 520.69 947.601 521.738 947.999 522.891L943.691 524.967C943.293 523.834 942.591 522.902 941.585 522.168C940.599 521.413 939.394 521.036 937.968 521.036C936.585 521.036 935.369 521.361 934.321 522.011C933.273 522.661 932.455 523.562 931.868 524.715C931.302 525.847 931.019 527.178 931.019 528.708C931.019 530.239 931.323 531.58 931.931 532.733C932.539 533.886 933.367 534.788 934.415 535.438C935.484 536.088 936.711 536.413 938.094 536.413C939.163 536.413 940.159 536.213 941.082 535.815C942.025 535.396 942.78 534.798 943.346 534.023C943.933 533.247 944.226 532.314 944.226 531.224V529.275L946.459 531.161H937.968V527.073H949.1V529.558C949.1 531.465 948.786 533.132 948.157 534.557C947.528 535.962 946.679 537.136 945.61 538.079C944.561 539.002 943.377 539.693 942.056 540.155C940.757 540.595 939.436 540.815 938.094 540.815ZM950.073 540.438L957.997 517.011H964.475L972.399 540.438H967.085L965.513 535.658H956.928L955.356 540.438H950.073ZM958.28 531.413H964.161L960.576 520.344H961.897L958.28 531.413ZM974.834 540.438V517.011H979.551L988.324 528.646H986.123L994.644 517.011H999.361V540.438H994.487V522.388L996.437 522.828L987.412 534.463H986.783L978.073 522.828L979.708 522.388V540.438H974.834ZM1003.52 540.438V517.011H1019.27V521.256H1008.39V526.57H1018.64V530.815H1008.39V536.192H1019.27V540.438H1003.52Z" fill="white"/>
</g>
<rect x="232.965" y="361.348" width="539.81" height="216.186" rx="17.6879" fill="white" stroke="#B4BFA3" stroke-width="3.93065"/>
<path d="M354.459 412.414C352.992 412.414 351.608 412.151 350.309 411.627C349.03 411.082 347.919 410.317 346.975 409.332C346.053 408.347 345.361 407.183 344.9 405.841L348.894 404.049C349.48 405.328 350.288 406.334 351.315 407.068C352.363 407.802 353.516 408.168 354.774 408.168C355.445 408.168 356.021 408.064 356.503 407.854C356.985 407.644 357.363 407.361 357.635 407.005C357.908 406.628 358.044 406.187 358.044 405.684C358.044 405.139 357.876 404.678 357.541 404.301C357.206 403.902 356.681 403.588 355.969 403.357L351.378 401.848C349.512 401.24 348.107 400.38 347.164 399.269C346.221 398.137 345.749 396.785 345.749 395.213C345.749 393.829 346.084 392.614 346.755 391.565C347.447 390.517 348.401 389.7 349.617 389.113C350.854 388.526 352.269 388.232 353.862 388.232C355.266 388.232 356.566 388.473 357.761 388.955C358.956 389.438 359.983 390.119 360.843 390.999C361.723 391.88 362.384 392.938 362.824 394.175L358.862 395.968C358.421 394.878 357.761 394.029 356.881 393.421C356 392.792 354.994 392.477 353.862 392.477C353.212 392.477 352.635 392.582 352.132 392.792C351.629 393.001 351.241 393.305 350.969 393.704C350.696 394.081 350.56 394.521 350.56 395.024C350.56 395.569 350.738 396.052 351.095 396.471C351.451 396.869 351.986 397.184 352.698 397.414L357.195 398.861C359.082 399.469 360.486 400.318 361.409 401.408C362.352 402.498 362.824 403.829 362.824 405.401C362.824 406.764 362.467 407.98 361.755 409.049C361.042 410.097 360.057 410.925 358.799 411.533C357.562 412.12 356.115 412.414 354.459 412.414ZM366.297 412.036V388.609H382.051V392.855H371.171V398.169H381.422V402.414H371.171V407.791H382.051V412.036H366.297ZM389.028 412.036V392.855H383.085V388.609H399.751V392.855H393.902V412.036H389.028ZM412.028 412.036V392.855H406.085V388.609H422.751V392.855H416.902V412.036H412.028ZM425.165 412.036V388.609H430.039V398.735H439.158V388.609H444.032V412.036H439.158V402.98H430.039V412.036H425.165ZM448.196 412.036V388.609H463.95V392.855H453.07V398.169H463.321V402.414H453.07V407.791H463.95V412.036H448.196ZM472.363 412.036V388.609H480.005C482.541 388.609 484.742 389.113 486.608 390.119C488.474 391.125 489.92 392.509 490.948 394.27C491.975 396.031 492.488 398.043 492.488 400.307C492.488 402.571 491.975 404.594 490.948 406.376C489.92 408.137 488.474 409.521 486.608 410.527C484.742 411.533 482.541 412.036 480.005 412.036H472.363ZM477.237 407.791H480.13C481.661 407.791 482.981 407.487 484.093 406.879C485.204 406.25 486.063 405.38 486.671 404.269C487.3 403.137 487.614 401.816 487.614 400.307C487.614 398.777 487.3 397.456 486.671 396.345C486.063 395.234 485.204 394.374 484.093 393.767C482.981 393.159 481.661 392.855 480.13 392.855H477.237V407.791ZM495.61 412.036V388.609H500.484V412.036H495.61ZM504.638 412.036V388.609H520.675V392.855H509.512V398.798H519.103V403.043H509.512V412.036H504.638ZM523.093 412.036V388.609H539.131V392.855H527.967V398.798H537.558V403.043H527.967V412.036H523.093ZM541.549 412.036V388.609H546.423V412.036H541.549ZM561.709 412.414C560.032 412.414 558.47 412.11 557.024 411.502C555.598 410.894 554.351 410.045 553.282 408.955C552.212 407.864 551.374 406.586 550.766 405.118C550.179 403.651 549.886 402.047 549.886 400.307C549.886 398.567 550.179 396.963 550.766 395.496C551.353 394.008 552.181 392.729 553.25 391.66C554.319 390.57 555.567 389.731 556.992 389.144C558.439 388.536 560.011 388.232 561.709 388.232C563.407 388.232 564.927 388.515 566.269 389.081C567.631 389.647 568.784 390.402 569.727 391.345C570.671 392.289 571.342 393.337 571.74 394.49L567.432 396.565C567.034 395.433 566.331 394.5 565.325 393.767C564.34 393.012 563.134 392.634 561.709 392.634C560.325 392.634 559.109 392.959 558.061 393.609C557.013 394.259 556.196 395.161 555.609 396.314C555.043 397.446 554.76 398.777 554.76 400.307C554.76 401.837 555.043 403.179 555.609 404.332C556.196 405.485 557.013 406.387 558.061 407.036C559.109 407.686 560.325 408.011 561.709 408.011C563.134 408.011 564.34 407.644 565.325 406.911C566.331 406.156 567.034 405.213 567.432 404.081L571.74 406.156C571.342 407.309 570.671 408.357 569.727 409.3C568.784 410.244 567.631 410.999 566.269 411.565C564.927 412.131 563.407 412.414 561.709 412.414ZM584.175 412.414C582.331 412.414 580.685 412.026 579.238 411.25C577.792 410.474 576.649 409.416 575.811 408.074C574.993 406.711 574.585 405.171 574.585 403.452V388.609H579.459V403.137C579.459 404.06 579.658 404.898 580.056 405.653C580.475 406.387 581.041 406.963 581.754 407.382C582.467 407.802 583.274 408.011 584.175 408.011C585.098 408.011 585.905 407.802 586.597 407.382C587.309 406.963 587.865 406.387 588.263 405.653C588.682 404.898 588.892 404.06 588.892 403.137V388.609H593.766V403.452C593.766 405.171 593.347 406.711 592.508 408.074C591.691 409.416 590.559 410.474 589.112 411.25C587.666 412.026 586.02 412.414 584.175 412.414ZM597.622 412.036V388.609H602.496V407.791H612.402V412.036H597.622ZM617.159 412.036V392.855H611.216V388.609H627.882V392.855H622.033V412.036H617.159ZM636.365 412.036V401.816L628.566 388.609H634.132L639.792 398.546H637.811L643.44 388.609H649.006L641.239 401.785V412.036H636.365ZM653.593 404.804L653.278 388.609H657.995L657.681 404.804H653.593ZM653.278 412.036V407.319H657.995V412.036H653.278Z" fill="#B4BFA3"/>
<path d="M345.523 562.193V546.575H356.025V549.405H348.772V552.948H355.606V555.778H348.772V559.363H356.025V562.193H345.523ZM356.714 562.193L361.997 546.575H366.316L371.598 562.193H368.056L367.007 559.007H361.284L360.236 562.193H356.714ZM362.186 556.176H366.106L363.716 548.797H364.597L362.186 556.176ZM378.698 562.445C377.719 562.445 376.797 562.27 375.931 561.92C375.078 561.557 374.337 561.047 373.708 560.39C373.094 559.733 372.632 558.958 372.325 558.063L374.987 556.868C375.379 557.721 375.917 558.392 376.601 558.881C377.3 559.37 378.069 559.614 378.907 559.614C379.355 559.614 379.739 559.545 380.06 559.405C380.382 559.265 380.633 559.076 380.815 558.839C380.997 558.587 381.088 558.294 381.088 557.958C381.088 557.595 380.976 557.288 380.752 557.036C380.529 556.77 380.179 556.561 379.704 556.407L376.643 555.401C375.4 554.996 374.463 554.423 373.834 553.682C373.205 552.927 372.891 552.026 372.891 550.978C372.891 550.055 373.114 549.245 373.562 548.546C374.023 547.847 374.659 547.302 375.469 546.911C376.294 546.519 377.237 546.324 378.299 546.324C379.236 546.324 380.102 546.484 380.899 546.806C381.696 547.127 382.38 547.581 382.953 548.168C383.54 548.755 383.981 549.461 384.274 550.286L381.633 551.481C381.339 550.754 380.899 550.188 380.312 549.783C379.725 549.363 379.054 549.154 378.299 549.154C377.866 549.154 377.482 549.224 377.146 549.363C376.811 549.503 376.553 549.706 376.371 549.971C376.189 550.223 376.098 550.516 376.098 550.852C376.098 551.215 376.217 551.537 376.455 551.816C376.692 552.082 377.049 552.291 377.524 552.445L380.522 553.409C381.779 553.815 382.716 554.381 383.331 555.107C383.96 555.834 384.274 556.722 384.274 557.77C384.274 558.678 384.036 559.489 383.561 560.201C383.086 560.9 382.429 561.452 381.591 561.858C380.766 562.249 379.802 562.445 378.698 562.445ZM390.206 562.193V555.38L385.007 546.575H388.717L392.491 553.2H391.17L394.923 546.575H398.633L393.455 555.359V562.193H390.206Z" fill="#B4BFA3"/>
<path d="M604.79 562.193V546.575H608.039V553.325H614.118V546.575H617.368V562.193H614.118V556.156H608.039V562.193H604.79ZM618.991 562.193L624.273 546.575H628.592L633.875 562.193H630.332L629.284 559.007H623.561L622.513 562.193H618.991ZM624.462 556.176H628.382L625.992 548.797H626.873L624.462 556.176ZM635.498 562.193V546.575H641.472C642.548 546.575 643.499 546.764 644.323 547.141C645.162 547.519 645.819 548.078 646.294 548.818C646.769 549.559 647.007 550.474 647.007 551.565C647.007 552.627 646.762 553.535 646.273 554.29C645.784 555.03 645.127 555.589 644.302 555.967L647.866 562.193H644.219L640.361 555.296L642.458 556.533H638.747V562.193H635.498ZM638.747 553.703H641.493C641.955 553.703 642.353 553.612 642.688 553.43C643.024 553.249 643.282 552.997 643.464 552.676C643.66 552.354 643.757 551.984 643.757 551.565C643.757 551.131 643.66 550.754 643.464 550.432C643.282 550.111 643.024 549.859 642.688 549.678C642.353 549.496 641.955 549.405 641.493 549.405H638.747V553.703ZM649.48 562.193V546.575H654.574C656.265 546.575 657.733 546.911 658.977 547.581C660.221 548.252 661.185 549.175 661.87 550.349C662.554 551.523 662.897 552.864 662.897 554.374C662.897 555.883 662.554 557.232 661.87 558.42C661.185 559.594 660.221 560.516 658.977 561.187C657.733 561.858 656.265 562.193 654.574 562.193H649.48ZM652.73 559.363H654.658C655.678 559.363 656.559 559.16 657.3 558.755C658.04 558.336 658.613 557.756 659.019 557.015C659.438 556.26 659.648 555.38 659.648 554.374C659.648 553.353 659.438 552.473 659.019 551.732C658.613 550.992 658.04 550.419 657.3 550.013C656.559 549.608 655.678 549.405 654.658 549.405H652.73V559.363Z" fill="#B4BFA3"/>
<rect x="252.965" y="433.41" width="237.569" height="100.887" rx="17.6879" fill="#EAEFD3" stroke="#B4BFA3" stroke-width="3.93065"/>
<path d="M345.266 497.578C344.029 497.578 342.834 497.347 341.681 496.886C340.528 496.404 339.543 495.733 338.725 494.873C337.908 493.993 337.373 492.945 337.122 491.729L341.43 490.282C341.744 491.289 342.247 492.022 342.939 492.484C343.631 492.945 344.406 493.175 345.266 493.175C346 493.175 346.639 493.029 347.184 492.735C347.729 492.421 348.148 491.991 348.442 491.446C348.756 490.88 348.914 490.23 348.914 489.496C348.914 488.763 348.756 488.123 348.442 487.578C348.148 487.033 347.729 486.614 347.184 486.32C346.639 486.006 346 485.849 345.266 485.849C344.511 485.849 343.84 486.016 343.253 486.352C342.666 486.666 342.237 487.159 341.964 487.83L337.971 486.886L339.857 473.774H352.939V477.862H341.838L343.662 475.66L342.373 485.408L341.052 484.245C341.576 483.385 342.237 482.757 343.033 482.358C343.851 481.96 344.899 481.761 346.178 481.761C347.75 481.761 349.102 482.096 350.234 482.767C351.366 483.417 352.236 484.318 352.844 485.471C353.473 486.624 353.788 487.966 353.788 489.496C353.788 491.027 353.41 492.41 352.656 493.647C351.922 494.863 350.916 495.827 349.637 496.54C348.358 497.232 346.901 497.578 345.266 497.578ZM361.626 497.2L369.298 485.471L361.626 473.774H367.223L373.386 483.144H370.65L376.782 473.774H382.379L374.738 485.471L382.379 497.2H376.782L370.65 487.798L373.386 487.83L367.223 497.2H361.626ZM397.965 497.578C396.728 497.578 395.533 497.347 394.38 496.886C393.227 496.404 392.242 495.733 391.424 494.873C390.607 493.993 390.072 492.945 389.821 491.729L394.129 490.282C394.443 491.289 394.946 492.022 395.638 492.484C396.33 492.945 397.105 493.175 397.965 493.175C398.699 493.175 399.338 493.029 399.883 492.735C400.428 492.421 400.847 491.991 401.141 491.446C401.455 490.88 401.613 490.23 401.613 489.496C401.613 488.763 401.455 488.123 401.141 487.578C400.847 487.033 400.428 486.614 399.883 486.32C399.338 486.006 398.699 485.849 397.965 485.849C397.21 485.849 396.539 486.016 395.952 486.352C395.366 486.666 394.936 487.159 394.663 487.83L390.67 486.886L392.556 473.774H405.638V477.862H394.537L396.361 475.66L395.072 485.408L393.751 484.245C394.275 483.385 394.936 482.757 395.732 482.358C396.55 481.96 397.598 481.761 398.877 481.761C400.449 481.761 401.801 482.096 402.933 482.767C404.065 483.417 404.935 484.318 405.543 485.471C406.172 486.624 406.487 487.966 406.487 489.496C406.487 491.027 406.109 492.41 405.355 493.647C404.621 494.863 403.615 495.827 402.336 496.54C401.057 497.232 399.6 497.578 397.965 497.578Z" fill="#505168"/>
<rect x="514.965" y="433.965" width="237.569" height="100.887" rx="17.6879" fill="white" stroke="#B4BFA3" stroke-width="3.93065"/>
<path d="M601.757 497.755L611.222 478.417H600.405V474.329H616.347V478.417L607.165 497.755H601.757ZM623.626 497.755L631.298 486.026L623.626 474.329H629.223L635.386 483.699H632.65L638.782 474.329H644.379L636.738 486.026L644.379 497.755H638.782L632.65 488.353L635.386 488.385L629.223 497.755H623.626ZM652.89 497.755L662.355 478.417H651.538V474.329H667.48V478.417L658.298 497.755H652.89Z" fill="#B4BFA3"/>
<g filter="url(#filter0_d_1_2)">
<rect x="-110" y="661" width="10.9999" height="1447" transform="rotate(-90 -110 661)" fill="#D1D6C2"/>
<rect x="-112.641" y="663.641" width="16.2818" height="1452.28" transform="rotate(-90 -112.641 663.641)" stroke="#8E9093" stroke-width="5.28187"/>
</g>
<g filter="url(#filter1_d_1_2)">
<rect x="-110" y="750" width="10.9999" height="1447" transform="rotate(-90 -110 750)" fill="#D1D6C2"/>
<rect x="-112.641" y="752.641" width="16.2818" height="1452.28" transform="rotate(-90 -112.641 752.641)" stroke="#8E9093" stroke-width="5.28187"/>
</g>
<path d="M436.01 768.475C434.348 768.475 433 767.127 433 765.465L433 632.798C433 631.225 434.211 629.917 435.779 629.796L468.82 627.255C470.594 627.118 472.099 628.542 472.061 630.32L469.184 765.529C469.149 767.166 467.812 768.475 466.174 768.475L436.01 768.475Z" fill="#D5B777" stroke="#9A7D3C" stroke-width="3.0101"/>
<line x1="460.736" y1="651.081" x2="460.736" y2="630.01" stroke="#9A7D3C" stroke-width="3.0101" stroke-linecap="round"/>
<line x1="444.495" y1="693.576" x2="444.495" y2="672.505" stroke="#9A7D3C" stroke-width="3.0101" stroke-linecap="round"/>
<line x1="455.495" y1="734.576" x2="455.495" y2="713.505" stroke="#9A7D3C" stroke-width="3.0101" stroke-linecap="round"/>
<line x1="451.807" y1="768.475" x2="451.807" y2="747.404" stroke="#9A7D3C" stroke-width="3.0101" stroke-linecap="round"/>
<path d="M130.01 768.475C128.348 768.475 127 767.127 127 765.465L127 632.798C127 631.225 128.211 629.917 129.779 629.796L162.82 627.255C164.594 627.118 166.099 628.542 166.061 630.32L163.184 765.529C163.149 767.166 161.812 768.475 160.174 768.475L130.01 768.475Z" fill="#D5B777" stroke="#9A7D3C" stroke-width="3.0101"/>
<line x1="134.525" y1="651.081" x2="134.525" y2="630.01" stroke="#9A7D3C" stroke-width="3.0101" stroke-linecap="round"/>
<line x1="143.555" y1="693.222" x2="143.555" y2="672.151" stroke="#9A7D3C" stroke-width="3.0101" stroke-linecap="round"/>
<line x1="137.535" y1="738.373" x2="137.535" y2="717.303" stroke="#9A7D3C" stroke-width="3.0101" stroke-linecap="round"/>
<line x1="155.596" y1="768.475" x2="155.596" y2="747.404" stroke="#9A7D3C" stroke-width="3.0101" stroke-linecap="round"/>
<path d="M377.079 766.842C375.394 766.912 373.98 765.585 373.944 763.899L371.069 630.206C371.032 628.469 372.468 627.061 374.204 627.133L404.299 628.387C405.886 628.454 407.148 629.741 407.183 631.329L410.066 762.514C410.102 764.153 408.82 765.519 407.182 765.587L377.079 766.842Z" fill="#D5B777" stroke="#9A7D3C" stroke-width="3.0101"/>
<line x1="381.535" y1="765.465" x2="381.535" y2="744.394" stroke="#9A7D3C" stroke-width="3.0101" stroke-linecap="round"/>
<line x1="396.586" y1="729.343" x2="396.586" y2="708.273" stroke="#9A7D3C" stroke-width="3.0101" stroke-linecap="round"/>
<line x1="378.525" y1="678.172" x2="378.525" y2="657.101" stroke="#9A7D3C" stroke-width="3.0101" stroke-linecap="round"/>
<line x1="396.586" y1="651.081" x2="396.586" y2="630.01" stroke="#9A7D3C" stroke-width="3.0101" stroke-linecap="round"/>
<path d="M71.0788 766.842C69.3941 766.912 67.9803 765.585 67.9441 763.899L65.0689 630.206C65.0316 628.469 66.468 627.061 68.2036 627.133L98.2992 628.387C99.886 628.454 101.148 629.741 101.183 631.329L104.066 762.514C104.102 764.153 102.82 765.519 101.182 765.587L71.0788 766.842Z" fill="#D5B777" stroke="#9A7D3C" stroke-width="3.0101"/>
<line x1="75.5352" y1="765.465" x2="75.5352" y2="744.394" stroke="#9A7D3C" stroke-width="3.0101" stroke-linecap="round"/>
<line x1="90.5859" y1="729.343" x2="90.5859" y2="708.273" stroke="#9A7D3C" stroke-width="3.0101" stroke-linecap="round"/>
<line x1="72.5252" y1="678.172" x2="72.5252" y2="657.101" stroke="#9A7D3C" stroke-width="3.0101" stroke-linecap="round"/>
<line x1="90.5858" y1="651.081" x2="90.5858" y2="630.01" stroke="#9A7D3C" stroke-width="3.0101" stroke-linecap="round"/>
<path d="M315.079 775.872C313.394 775.942 311.98 774.615 311.944 772.929L309.069 639.236C309.032 637.499 310.468 636.092 312.204 636.164L342.299 637.418C343.886 637.484 345.148 638.771 345.183 640.359L348.066 771.544C348.102 773.183 346.82 774.55 345.182 774.618L315.079 775.872Z" fill="#D5B777" stroke="#9A7D3C" stroke-width="3.0101"/>
<line x1="316.525" y1="660.111" x2="316.525" y2="639.04" stroke="#9A7D3C" stroke-width="3.0101" stroke-linecap="round"/>
<line x1="331.576" y1="708.273" x2="331.576" y2="687.202" stroke="#9A7D3C" stroke-width="3.0101" stroke-linecap="round"/>
<line x1="322.545" y1="750.414" x2="322.545" y2="729.343" stroke="#9A7D3C" stroke-width="3.0101" stroke-linecap="round"/>
<line x1="340.606" y1="774.495" x2="340.606" y2="753.424" stroke="#9A7D3C" stroke-width="3.0101" stroke-linecap="round"/>
<path d="M9.13737 775.872C7.45267 775.942 6.03891 774.615 6.00266 772.929L3.12753 639.236C3.09018 637.499 4.52659 636.092 6.26224 636.164L36.3578 637.418C37.9445 637.484 39.207 638.771 39.2418 640.359L42.125 771.544C42.1611 773.183 40.8789 774.55 39.241 774.618L9.13737 775.872Z" fill="#D5B777" stroke="#9A7D3C" stroke-width="3.0101"/>
<line x1="10.5837" y1="660.111" x2="10.5837" y2="639.04" stroke="#9A7D3C" stroke-width="3.0101" stroke-linecap="round"/>
<line x1="25.6344" y1="708.273" x2="25.6344" y2="687.202" stroke="#9A7D3C" stroke-width="3.0101" stroke-linecap="round"/>
<line x1="16.6039" y1="750.414" x2="16.6039" y2="729.343" stroke="#9A7D3C" stroke-width="3.0101" stroke-linecap="round"/>
<line x1="34.6646" y1="774.495" x2="34.6646" y2="753.424" stroke="#9A7D3C" stroke-width="3.0101" stroke-linecap="round"/>
<path d="M250.01 770.746C248.348 770.746 247 769.399 247 767.736L247 635.069C247 633.496 248.211 632.189 249.779 632.068L282.82 629.526C284.594 629.39 286.099 630.813 286.061 632.592L283.184 767.8C283.149 769.438 281.812 770.746 280.174 770.746L250.01 770.746Z" fill="#D5B777" stroke="#9A7D3C" stroke-width="3.0101"/>
<line x1="251.515" y1="770.747" x2="251.515" y2="749.676" stroke="#9A7D3C" stroke-width="3.0101" stroke-linecap="round"/>
<line x1="272.586" y1="749.676" x2="272.586" y2="728.605" stroke="#9A7D3C" stroke-width="3.0101" stroke-linecap="round"/>
<line x1="257.535" y1="698.504" x2="257.535" y2="677.434" stroke="#9A7D3C" stroke-width="3.0101" stroke-linecap="round"/>
<line x1="269.576" y1="653.353" x2="269.576" y2="632.282" stroke="#9A7D3C" stroke-width="3.0101" stroke-linecap="round"/>
<path d="M193.34 767.871C191.748 767.796 190.491 766.492 190.474 764.898L189.034 635.325C189.015 633.65 190.368 632.282 192.044 632.282L220.573 632.282C222.248 632.282 223.601 633.65 223.583 635.325L222.145 766.119C222.127 767.825 220.696 769.174 218.992 769.093L193.34 767.871Z" fill="#D5B777" stroke="#9A7D3C" stroke-width="3.0101"/>
<line x1="199.535" y1="767.736" x2="199.535" y2="746.666" stroke="#9A7D3C" stroke-width="3.0101" stroke-linecap="round"/>
<line x1="214.586" y1="653.353" x2="214.586" y2="632.282" stroke="#9A7D3C" stroke-width="3.0101" stroke-linecap="round"/>
<line x1="214.586" y1="746.666" x2="214.586" y2="725.595" stroke="#9A7D3C" stroke-width="3.0101" stroke-linecap="round"/>
<line x1="202.545" y1="686.464" x2="202.545" y2="665.393" stroke="#9A7D3C" stroke-width="3.0101" stroke-linecap="round"/>
<path d="M928.01 768.475C926.348 768.475 925 767.127 925 765.465L925 632.798C925 631.225 926.211 629.917 927.779 629.796L960.82 627.255C962.594 627.118 964.098 628.542 964.061 630.32L961.184 765.529C961.149 767.166 959.812 768.475 958.174 768.475L928.01 768.475Z" fill="#D5B777" stroke="#9A7D3C" stroke-width="3.0101"/>
<line x1="932.525" y1="651.081" x2="932.525" y2="630.01" stroke="#9A7D3C" stroke-width="3.0101" stroke-linecap="round"/>
<line x1="941.555" y1="693.222" x2="941.555" y2="672.151" stroke="#9A7D3C" stroke-width="3.0101" stroke-linecap="round"/>
<line x1="935.535" y1="738.373" x2="935.535" y2="717.303" stroke="#9A7D3C" stroke-width="3.0101" stroke-linecap="round"/>
<line x1="953.596" y1="768.475" x2="953.596" y2="747.404" stroke="#9A7D3C" stroke-width="3.0101" stroke-linecap="round"/>
<path d="M1238.01 769.475C1236.35 769.475 1235 768.127 1235 766.465L1235 633.797C1235 632.225 1236.21 630.917 1237.78 630.796L1270.82 628.255C1272.59 628.118 1274.1 629.541 1274.06 631.32L1271.18 766.529C1271.15 768.166 1269.81 769.475 1268.17 769.475L1238.01 769.475Z" fill="#D5B777" stroke="#9A7D3C" stroke-width="3.0101"/>
<line x1="1242.53" y1="652.081" x2="1242.53" y2="631.01" stroke="#9A7D3C" stroke-width="3.0101" stroke-linecap="round"/>
<line x1="1251.56" y1="694.222" x2="1251.56" y2="673.151" stroke="#9A7D3C" stroke-width="3.0101" stroke-linecap="round"/>
<line x1="1245.54" y1="739.373" x2="1245.54" y2="718.303" stroke="#9A7D3C" stroke-width="3.0101" stroke-linecap="round"/>
<line x1="1263.6" y1="769.474" x2="1263.6" y2="748.404" stroke="#9A7D3C" stroke-width="3.0101" stroke-linecap="round"/>
<path d="M622.01 769.475C620.348 769.475 619 768.127 619 766.465L619 633.798C619 632.225 620.211 630.917 621.779 630.796L654.82 628.255C656.594 628.118 658.099 629.542 658.061 631.32L655.184 766.529C655.149 768.166 653.812 769.475 652.175 769.475L622.01 769.475Z" fill="#D5B777" stroke="#9A7D3C" stroke-width="3.0101"/>
<line x1="626.525" y1="652.081" x2="626.525" y2="631.01" stroke="#9A7D3C" stroke-width="3.0101" stroke-linecap="round"/>
<line x1="635.555" y1="694.222" x2="635.555" y2="673.151" stroke="#9A7D3C" stroke-width="3.0101" stroke-linecap="round"/>
<line x1="629.535" y1="739.373" x2="629.535" y2="718.303" stroke="#9A7D3C" stroke-width="3.0101" stroke-linecap="round"/>
<line x1="647.596" y1="769.475" x2="647.596" y2="748.404" stroke="#9A7D3C" stroke-width="3.0101" stroke-linecap="round"/>
<path d="M990.01 769.475C988.348 769.475 987 768.127 987 766.465L987 633.797C987 632.225 988.211 630.917 989.779 630.796L1022.82 628.255C1024.59 628.118 1026.1 629.541 1026.06 631.32L1023.18 766.529C1023.15 768.166 1021.81 769.475 1020.17 769.475L990.01 769.475Z" fill="#D5B777" stroke="#9A7D3C" stroke-width="3.0101"/>
<line x1="994.525" y1="652.081" x2="994.525" y2="631.01" stroke="#9A7D3C" stroke-width="3.0101" stroke-linecap="round"/>
<line x1="1003.56" y1="694.222" x2="1003.56" y2="673.151" stroke="#9A7D3C" stroke-width="3.0101" stroke-linecap="round"/>
<line x1="997.535" y1="739.373" x2="997.535" y2="718.303" stroke="#9A7D3C" stroke-width="3.0101" stroke-linecap="round"/>
<line x1="1015.6" y1="769.474" x2="1015.6" y2="748.404" stroke="#9A7D3C" stroke-width="3.0101" stroke-linecap="round"/>
<path d="M869.079 771.842C867.394 771.912 865.98 770.585 865.944 768.899L863.069 635.206C863.032 633.469 864.468 632.061 866.204 632.133L896.299 633.387C897.886 633.454 899.148 634.741 899.183 636.329L902.066 767.514C902.102 769.153 900.82 770.519 899.182 770.587L869.079 771.842Z" fill="#D5B777" stroke="#9A7D3C" stroke-width="3.0101"/>
<line x1="873.535" y1="770.465" x2="873.535" y2="749.394" stroke="#9A7D3C" stroke-width="3.0101" stroke-linecap="round"/>
<line x1="888.586" y1="734.343" x2="888.586" y2="713.273" stroke="#9A7D3C" stroke-width="3.0101" stroke-linecap="round"/>
<line x1="870.525" y1="683.172" x2="870.525" y2="662.101" stroke="#9A7D3C" stroke-width="3.0101" stroke-linecap="round"/>
<line x1="888.586" y1="656.081" x2="888.586" y2="635.01" stroke="#9A7D3C" stroke-width="3.0101" stroke-linecap="round"/>
<path d="M687.079 769.842C685.394 769.912 683.98 768.585 683.944 766.899L681.069 633.206C681.032 631.469 682.468 630.061 684.204 630.134L714.299 631.388C715.886 631.454 717.148 632.741 717.183 634.329L720.066 765.514C720.102 767.153 718.82 768.519 717.182 768.588L687.079 769.842Z" fill="#D5B777" stroke="#9A7D3C" stroke-width="3.0101"/>
<line x1="691.535" y1="768.465" x2="691.535" y2="747.394" stroke="#9A7D3C" stroke-width="3.0101" stroke-linecap="round"/>
<line x1="706.586" y1="732.344" x2="706.586" y2="711.273" stroke="#9A7D3C" stroke-width="3.0101" stroke-linecap="round"/>
<line x1="688.525" y1="681.172" x2="688.525" y2="660.101" stroke="#9A7D3C" stroke-width="3.0101" stroke-linecap="round"/>
<line x1="706.586" y1="654.081" x2="706.586" y2="633.01" stroke="#9A7D3C" stroke-width="3.0101" stroke-linecap="round"/>
<path d="M1055.08 767.842C1053.39 767.912 1051.98 766.585 1051.94 764.899L1049.07 631.206C1049.03 629.469 1050.47 628.061 1052.2 628.133L1082.3 629.387C1083.89 629.454 1085.15 630.741 1085.18 632.329L1088.07 763.514C1088.1 765.153 1086.82 766.519 1085.18 766.587L1055.08 767.842Z" fill="#D5B777" stroke="#9A7D3C" stroke-width="3.0101"/>
<line x1="1059.54" y1="766.465" x2="1059.54" y2="745.394" stroke="#9A7D3C" stroke-width="3.0101" stroke-linecap="round"/>
<line x1="1074.59" y1="730.343" x2="1074.59" y2="709.273" stroke="#9A7D3C" stroke-width="3.0101" stroke-linecap="round"/>
<line x1="1056.53" y1="679.172" x2="1056.53" y2="658.101" stroke="#9A7D3C" stroke-width="3.0101" stroke-linecap="round"/>
<line x1="1074.59" y1="652.081" x2="1074.59" y2="631.01" stroke="#9A7D3C" stroke-width="3.0101" stroke-linecap="round"/>
<path d="M563.079 770.872C561.394 770.942 559.98 769.615 559.944 767.929L557.069 634.236C557.032 632.499 558.468 631.092 560.204 631.164L590.299 632.418C591.886 632.484 593.148 633.771 593.183 635.359L596.066 766.544C596.102 768.183 594.82 769.55 593.182 769.618L563.079 770.872Z" fill="#D5B777" stroke="#9A7D3C" stroke-width="3.0101"/>
<line x1="564.525" y1="655.111" x2="564.525" y2="634.04" stroke="#9A7D3C" stroke-width="3.0101" stroke-linecap="round"/>
<line x1="579.576" y1="703.273" x2="579.576" y2="682.202" stroke="#9A7D3C" stroke-width="3.0101" stroke-linecap="round"/>
<line x1="570.545" y1="745.414" x2="570.545" y2="724.343" stroke="#9A7D3C" stroke-width="3.0101" stroke-linecap="round"/>
<line x1="588.606" y1="769.495" x2="588.606" y2="748.424" stroke="#9A7D3C" stroke-width="3.0101" stroke-linecap="round"/>
<path d="M501.079 769.872C499.394 769.942 497.98 768.615 497.944 766.929L495.069 633.236C495.032 631.499 496.468 630.092 498.204 630.164L528.299 631.418C529.886 631.484 531.148 632.771 531.183 634.359L534.066 765.544C534.102 767.183 532.82 768.55 531.182 768.618L501.079 769.872Z" fill="#D5B777" stroke="#9A7D3C" stroke-width="3.0101"/>
<line x1="502.525" y1="654.111" x2="502.525" y2="633.04" stroke="#9A7D3C" stroke-width="3.0101" stroke-linecap="round"/>
<line x1="517.576" y1="702.273" x2="517.576" y2="681.202" stroke="#9A7D3C" stroke-width="3.0101" stroke-linecap="round"/>
<line x1="508.545" y1="744.414" x2="508.545" y2="723.343" stroke="#9A7D3C" stroke-width="3.0101" stroke-linecap="round"/>
<line x1="526.606" y1="768.495" x2="526.606" y2="747.424" stroke="#9A7D3C" stroke-width="3.0101" stroke-linecap="round"/>
<path d="M1179.08 767.842C1177.39 767.912 1175.98 766.585 1175.94 764.899L1173.07 631.206C1173.03 629.469 1174.47 628.061 1176.2 628.133L1206.3 629.387C1207.89 629.454 1209.15 630.741 1209.18 632.329L1212.07 763.514C1212.1 765.153 1210.82 766.519 1209.18 766.587L1179.08 767.842Z" fill="#D5B777" stroke="#9A7D3C" stroke-width="3.0101"/>
<line x1="1180.53" y1="652.081" x2="1180.53" y2="631.01" stroke="#9A7D3C" stroke-width="3.0101" stroke-linecap="round"/>
<line x1="1195.58" y1="700.242" x2="1195.58" y2="679.172" stroke="#9A7D3C" stroke-width="3.0101" stroke-linecap="round"/>
<line x1="1186.55" y1="742.384" x2="1186.55" y2="721.313" stroke="#9A7D3C" stroke-width="3.0101" stroke-linecap="round"/>
<line x1="1204.61" y1="766.465" x2="1204.61" y2="745.394" stroke="#9A7D3C" stroke-width="3.0101" stroke-linecap="round"/>
<path d="M746.01 770.746C744.348 770.746 743 769.399 743 767.736L743 635.069C743 633.496 744.211 632.189 745.779 632.068L778.82 629.526C780.594 629.39 782.099 630.813 782.061 632.592L779.184 767.8C779.149 769.438 777.812 770.746 776.175 770.746L746.01 770.746Z" fill="#D5B777" stroke="#9A7D3C" stroke-width="3.0101"/>
<line x1="747.515" y1="770.747" x2="747.515" y2="749.676" stroke="#9A7D3C" stroke-width="3.0101" stroke-linecap="round"/>
<line x1="768.586" y1="749.676" x2="768.586" y2="728.605" stroke="#9A7D3C" stroke-width="3.0101" stroke-linecap="round"/>
<line x1="753.535" y1="698.504" x2="753.535" y2="677.434" stroke="#9A7D3C" stroke-width="3.0101" stroke-linecap="round"/>
<line x1="765.576" y1="653.353" x2="765.576" y2="632.282" stroke="#9A7D3C" stroke-width="3.0101" stroke-linecap="round"/>
<path d="M1114.01 770.746C1112.35 770.746 1111 769.399 1111 767.736L1111 635.069C1111 633.496 1112.21 632.189 1113.78 632.068L1146.82 629.526C1148.59 629.39 1150.1 630.813 1150.06 632.592L1147.18 767.8C1147.15 769.437 1145.81 770.746 1144.17 770.746L1114.01 770.746Z" fill="#D5B777" stroke="#9A7D3C" stroke-width="3.0101"/>
<line x1="1115.52" y1="770.746" x2="1115.52" y2="749.676" stroke="#9A7D3C" stroke-width="3.0101" stroke-linecap="round"/>
<line x1="1136.59" y1="749.676" x2="1136.59" y2="728.605" stroke="#9A7D3C" stroke-width="3.0101" stroke-linecap="round"/>
<line x1="1121.54" y1="698.504" x2="1121.54" y2="677.433" stroke="#9A7D3C" stroke-width="3.0101" stroke-linecap="round"/>
<line x1="1133.58" y1="653.352" x2="1133.58" y2="632.282" stroke="#9A7D3C" stroke-width="3.0101" stroke-linecap="round"/>
<path d="M809.34 767.871C807.748 767.796 806.491 766.492 806.474 764.898L805.034 635.325C805.015 633.65 806.368 632.282 808.044 632.282L836.573 632.282C838.248 632.282 839.601 633.65 839.583 635.325L838.145 766.119C838.127 767.825 836.696 769.174 834.992 769.093L809.34 767.871Z" fill="#D5B777" stroke="#9A7D3C" stroke-width="3.0101"/>
<line x1="815.535" y1="767.736" x2="815.535" y2="746.666" stroke="#9A7D3C" stroke-width="3.0101" stroke-linecap="round"/>
<line x1="830.586" y1="653.353" x2="830.586" y2="632.282" stroke="#9A7D3C" stroke-width="3.0101" stroke-linecap="round"/>
<line x1="830.586" y1="746.666" x2="830.586" y2="725.595" stroke="#9A7D3C" stroke-width="3.0101" stroke-linecap="round"/>
<line x1="818.545" y1="686.464" x2="818.545" y2="665.393" stroke="#9A7D3C" stroke-width="3.0101" stroke-linecap="round"/>
</g>
<defs>
<filter id="filter0_d_1_2" x="-120.564" y="639.436" width="1468.13" height="32.1275" filterUnits="userSpaceOnUse" color-interpolation-filters="sRGB">
<feFlood flood-opacity="0" result="BackgroundImageFix"/>
<feColorMatrix in="SourceAlpha" type="matrix" values="0 0 0 0 0 0 0 0 0 0 0 0 0 0 0 0 0 0 127 0" result="hardAlpha"/>
<feMorphology radius="5.28187" operator="dilate" in="SourceAlpha" result="effect1_dropShadow_1_2"/>
<feOffset/>
<feComposite in2="hardAlpha" operator="out"/>
<feColorMatrix type="matrix" values="0 0 0 0 0.281908 0 0 0 0 0.387944 0 0 0 0 0.546999 0 0 0 0.02 0"/>
<feBlend mode="normal" in2="BackgroundImageFix" result="effect1_dropShadow_1_2"/>
<feBlend mode="normal" in="SourceGraphic" in2="effect1_dropShadow_1_2" result="shape"/>
</filter>
<filter id="filter1_d_1_2" x="-120.564" y="728.436" width="1468.13" height="32.1275" filterUnits="userSpaceOnUse" color-interpolation-filters="sRGB">
<feFlood flood-opacity="0" result="BackgroundImageFix"/>
<feColorMatrix in="SourceAlpha" type="matrix" values="0 0 0 0 0 0 0 0 0 0 0 0 0 0 0 0 0 0 127 0" result="hardAlpha"/>
<feMorphology radius="5.28187" operator="dilate" in="SourceAlpha" result="effect1_dropShadow_1_2"/>
<feOffset/>
<feComposite in2="hardAlpha" operator="out"/>
<feColorMatrix type="matrix" values="0 0 0 0 0.281908 0 0 0 0 0.387944 0 0 0 0 0.546999 0 0 0 0.02 0"/>
<feBlend mode="normal" in2="BackgroundImageFix" result="effect1_dropShadow_1_2"/>
<feBlend mode="normal" in="SourceGraphic" in2="effect1_dropShadow_1_2" result="shape"/>
</filter>
<clipPath id="clip0_1_2">
<rect width="1280" height="832" fill="white"/>
</clipPath>
</defs>
</svg>
